<svg width="24" height="24" viewBox="0 0 24 24" fill="none" xmlns="http://www.w3.org/2000/svg">
<path d="M20.3545 4.35346L19.6465 3.64746L12.0005 11.2935L4.35346 3.64746L3.64746 4.35346L11.2935 12.0005L3.64746 19.6465L4.35346 20.3545L12.0005 12.7075L19.6465 20.3545L20.3545 19.6465L12.7075 12.0005L20.3545 4.35346Z" fill="black"/>
<mask id="mask0" mask-type="alpha" maskUnits="userSpaceOnUse" x="3" y="3" width="18" height="18">
<path d="M20.3545 4.35346L19.6465 3.64746L12.0005 11.2935L4.35346 3.64746L3.64746 4.35346L11.2935 12.0005L3.64746 19.6465L4.35346 20.3545L12.0005 12.7075L19.6465 20.3545L20.3545 19.6465L12.7075 12.0005L20.3545 4.35346Z" fill="white"/>
</mask>
<g mask="url(#mask0)">
<rect width="24" height="24" fill="white"/>
</g>
</svg>
